<svg xmlns="http://www.w3.org/2000/svg" width="150.441" height="245.744" viewBox="0 0 39.804 65.02"><path style="line-height:normal;font-variant-ligatures:normal;font-variant-position:normal;font-variant-caps:normal;font-variant-numeric:normal;font-variant-alternates:normal;font-feature-settings:normal;text-indent:0;text-align:start;text-decoration-line:none;text-decoration-style:solid;text-decoration-color:#000;text-transform:none;text-orientation:mixed;white-space:normal;shape-padding:0;isolation:auto;mix-blend-mode:normal;solid-color:#000;solid-opacity:1" d="M21.549.002c-1.419-.02-2.91.113-4.111.262-1.66.204-3.118.466-4.653 1.03-1.564.573-3.149 1.467-4.279 2.265-1.073.758-1.792 1.405-2.521 2.322-.511.642-1.323 1.617-1.73 2.81-.515.793-.702 1.624-.796 1.813-.489.986-.843 2.032-1.254 3.176C1.8 14.81 1.178 16.428.867 17.813a17.68 17.68 0 00-.435 3.424c-.052 1.302.094 2.808.174 3.787.048.59.11.985.166 1.375-.043.044-.096.078-.135.125-.243.25-.326.483-.346.523a.866.866 0 00-.008.018c-.356.76-.274 1.52-.277 1.66-.016.705.155 1.197.164 1.297.024.25.013.852.067 1.482.05.607.15 1.175.2 1.625.058.511.101.935.151 1.502.031.352.083.724.117 1.037.016.146.026.294.032.408.005.113-.007.244.007.133-.014.109.082-.182-.013-.002-.064.12-.296.53-.348 1.076a.866.866 0 000 .002.56.56 0 00-.002.032.866.866 0 00-.002.02c-.063.786.126 1.485.264 1.935.144.47.345.892.629 1.267.1.134.189.198.287.293.075.69.158 1.391.324 2.23.32 1.617.86 3.366 1.385 5.108a108.72 108.72 0 001.857 5.602c.516 1.399.741 2.5 1.598 3.943a2.442 2.442 0 01-.051-.098c-.001-.003.025.058.05.102l.003.002v.002a.866.866 0 00.01.016l.115.193c.933 1.523 2.382 3.1 3.62 4.185 1.212 1.061 2.459 1.914 3.675 2.395 1.098.435 1.943.53 2.886.504 1.032-.03 1.962-.25 3.27-.74 1.366-.513 3.206-1.403 4.854-2.59 1.577-1.138 3.375-2.657 4.677-4.457 1.306-1.805 1.859-3.57 2.627-5.506.845-2.129 1.627-4.923 2.254-6.916.246-.78.495-1.485.74-2.2.19-.057.377-.092.58-.236.236-.166.387-.342.446-.404.479-.498.709-1.06.845-1.355l.006-.008.008-.018a.866.866 0 00.079-.232c.127-.29.266-.6.326-1.002.04-.278.036-.517.02-.7a4 4 0 00-.024-.206c-.002-.017-.006-.031-.008-.045-.001-.098-.004-.186-.01-.166.009-.025.019-.047.03-.073a7.61 7.61 0 00.198-.548.866.866 0 00.008-.032.866.866 0 00.004-.006.866.866 0 00.01-.039.866.866 0 00.002-.007.28.28 0 01.008-.028.866.866 0 00.002-.008.866.866 0 00.008-.056v.025c.1-.328.176-.61.323-1.148.177-.651.476-1.815.664-2.498.17-.62.363-1.14.511-1.813v-.008h.002v-.002-.002a.866.866 0 00.004-.011l.004-.014a.866.866 0 00.004-.012c-.002.008.002-.01 0-.004a.866.866 0 00.002-.006v-.003a.866.866 0 00.004-.014l.004-.025a.866.866 0 00.002-.018l.002-.006a.866.866 0 000-.004.866.866 0 00.002-.02c.119-.569.217-1.13.248-1.755l.002-.037c.027-.521.116-1.334-.144-2.176-.064-.207-.146-.48-.32-.776-.049-.081-.124-.127-.18-.199.136-.575.245-1.148.322-1.775.14-1.134.178-2.653.182-3.854v-.002c.004-1.195-.023-2.44-.145-3.507-.105-.93-.233-1.776-.535-2.833a.866.866 0 00-.021-.101v-.002l-.002-.006a.866.866 0 00-.012-.035.866.866 0 00-.05-.13c-.161-.492-.352-.99-.565-1.468l.008.686c.171-.409.184-.918-.055-1.367-.01-.02-.91-1.722-1.69-2.942-.733-1.15-1.846-2.836-2.864-4.054-.886-1.059-1.749-2.237-3.063-3.045l.006.002-.047-.03a.866.866 0 00-.271-.11c-1.142-.61-2.09-.687-2.9-.942C26.512 1.11 25.06.369 23.18.113a13.67 13.67 0 00-1.629-.11.866.866 0 00-.002 0zM7.637 11.801c1.088.037 2.6.096 4.19.244 1.748.163 3.5.446 4.304.764 1.197.472 1.792.934 2.461 1.472.669.539 1.42 1.17 2.68 1.735 1.312.589 3.075.961 4.744 1.316 1.669.355 3.274.716 3.902 1.016.789.376 1.174.668 1.332.816.08.074.102.11.098.104-.004-.007-.059-.149-.059-.149l1.305-.406a.866.866 0 00.604.123c.126.64.346 1.248.425 1.87.072.567.06 1.143.067 1.716-.026-.004-.05-.004-.076-.008-.233-.035-.424-.099-.881-.181-.015-.13-.001-.222-.04-.368a3.105 3.105 0 00-.501-1.105c-.36-.485-.815-.78-1.174-1.041-.376-.273-.802-.56-1.303-.777a5.834 5.834 0 00-1.504-.424c-.414-.055-.713-.043-1.148.01-.575.069-1.224.269-1.711.39-.546.136-1.04.29-1.471.393-.406.097-.906.154-1.394.302-.313.095-.723.132-1.16.508-.315.271-.6.703-.669 1.178-.047.33.122.689.264 1.041-.065.016-.18.046-.242.059-.513.105-.88.183-1.276.22-.43.04-.86.057-1.207.024-.36-.035-.534-.096-1.101-.237-.483-.12-1.313-.394-2.041-.585-.14-.037-.292-.067-.432-.104.153-.268.284-.549.313-.799a.866.866 0 000-.002c.028-.252.047-.688-.184-1.103-.172-.31-.533-.613-.916-.81-.584-.303-1.11-.33-1.697-.477a89.17 89.17 0 00-2.36-.553c-.602-.13-.97-.233-1.466-.29a6.354 6.354 0 00-1.32-.036c-.365.031-.902.046-1.471.334.089-.433.175-.918.252-1.28.24-1.137.378-1.988.588-2.623.242-.735.295-.924.666-1.517.082-.132.362-.464.609-.76zm.344 11.46c.35.006.712.015 1.025.026a.866.866 0 00.002 0c.64.022 1.227.048 1.783.104.563.057 1.11.14 1.627.236.545.102 1.05.196 1.418.32.418.142.834.331 1.004.448.267.182.276.191.344.308.051.088.073.161.098.45.017.206-.005.487-.082.87h.002c-.066.33-.243.857-.415 1.276-.17.416-.363.801-.587 1.172-.264.434-.527.842-.657.951-.245.207-.254.192-.726.34-.33.103-1.076.207-1.664.246-.542.036-1.17-.008-1.776-.04-.602-.03-.968-.037-1.593-.13-.616-.091-1.684-.315-2.194-.467-.55-.163-.89-.31-1.094-.418-.283-.15-.018.05-.173-.11-.096-.097-.167-.178-.28-.429a5.065 5.065 0 01-.138-.486c.11-.447.263-.96.355-1.51.057-.336.076-.621.104-.91.015-.006.028-.001.043-.008a1.64 1.64 0 00.507-.383.866.866 0 00.002 0c.3-.31.358-.567.44-.79.081-.224.15-.421.2-.52.106-.213.174-.316.251-.45l.033-.001c.448-.044.687-.074 1.207-.09.252-.008.587-.01.934-.004zm19.222.696c.44 0 .904.013 1.342.045.426.03.85.085 1.313.145.054.161.098.3.2.591.106.298.215.758.415 1.174.044.092.059.148.135.29.075.14.31.395.511.49.16.074.42.135.65.1a1.19 1.19 0 00.477-.188c.103-.064.17-.257.274-.383-.023.226-.033.458-.065.619-.064.333-.134.523-.256.895-.11.335-.272.768-.41 1.091-.188.443-.294.71-.299.715-.045.05-.161.092-.527.266-.259.123-.473.209-.799.303-.298.085-.76.172-1.176.234-.406.06-.79.097-1.24.121-.445.023-.933.028-1.422.01a17.939 17.939 0 01-1.517-.123c-.545-.068-1.147-.144-1.358-.217-.366-.128-.385-.133-.582-.309-.123-.11-.336-.415-.476-.695-.102-.202-.141-.453-.291-.922-.137-.426-.334-.997-.407-1.3-.092-.389-.12-.53-.125-.667-.008-.212-.009-.23.012-.408.03-.273.08-.682.078-.674.05-.17.033-.13.108-.234a.838.838 0 01.226-.219c.086-.057.174-.092.48-.195a9.01 9.01 0 011.057-.262c.324-.058.65-.073 1.094-.119.427-.044.89-.102 1.3-.129.431-.028.843-.044 1.278-.045zm-8.949 2.135c.128-.004.278.001.399.012.231.02.347.063.359.062.01.02-.003-.003.012.028.036.073.084.235.162.564.088.373.213.801.367 1.3.147.48.36 1.241.598 1.8.197.465.364.854.658 1.228.237.302.52.56.87.772.434.26.91.412 1.411.543.577.15 1.218.205 1.707.257.502.055.918.092 1.475.1.575.008 1.229-.033 1.816-.072.564-.038 1.174-.057 1.84-.176.64-.114 1.4-.292 1.955-.525.437-.184.704-.365.938-.567.353-.305.558-.652.748-.982.177-.308.302-.653.427-1 0 .431-.056.789-.103 1.086-.024.148-.05.269-.055.457-.003.094-.012.208.063.414.008.022.061.038.074.062 0 .077 0 .098-.004.262a.866.866 0 000 .002c-.005.288-.015.69-.03 1.133-.015.44-.037.921-.068 1.373-.016.23-.033.446-.053.639a.866.866 0 000 .002c-.02.194-.043.374-.068.529l.002-.004c-.027.164-.055.325-.088.486a.866.866 0 000 .002 19.85 19.85 0 01-.379 1.51c-.099.337-.204.672-.312.996-.109.324-.222.64-.33.94-.113.312-.216.616-.319.904a.866.866 0 00-.002 0c-.102.289-.2.56-.302.812-.052.127-.107.25-.16.368a6.223 6.223 0 01-.342.638c-.06.094-.123.183-.19.27a.866.866 0 000 .002 4.693 4.693 0 01-.441.492 4.867 4.867 0 01-.235.215.866.866 0 00-.002 0 5.442 5.442 0 01-.511.388 8.731 8.731 0 01-.282.186 20.531 20.531 0 01-1.703.938 8.913 8.913 0 01-.72.3c-.115.04-.219.07-.311.094a2.019 2.019 0 01-.248.049.866.866 0 00-.002 0 .988.988 0 01-.088.006.866.866 0 00-.012 0c-.009 0-.027 0-.05-.002h-.006a2.475 2.475 0 01-.196-.024 1.126 1.126 0 01-.197-.052l-.002-.002a.49.49 0 01-.037-.024h-.002a.49.49 0 01-.043-.031l-.004-.004a1.148 1.148 0 01-.072-.07 6.812 6.812 0 01-.24-.287.225.225 0 01-.028-.045.866.866 0 00-.002-.004.931.931 0 01-.043-.112v-.002a2.426 2.426 0 01-.05-.19.866.866 0 000-.001 6.294 6.294 0 01-.054-.246.866.866 0 000-.006c-.036-.185-.078-.404-.144-.647l.002.002a3.91 3.91 0 00-.123-.378.866.866 0 00-.002-.002 3.232 3.232 0 00-.178-.391 8.584 8.584 0 00-.416-.668c-.156-.227-.325-.45-.5-.666a10.481 10.481 0 00-.267-.32 9.21 9.21 0 00-.28-.301 5.37 5.37 0 00-.564-.525c-.16-.13-.305-.244-.444-.348a7.965 7.965 0 00-.396-.281c-.064-.042-.13-.078-.193-.118.24-.194.48-.387.656-.632a3.9 3.9 0 00.514-1.05c.119-.35.21-.73.228-1.13a3.184 3.184 0 00-.11-.977.866.866 0 000-.002 3.38 3.38 0 00-.466-1.043 3.74 3.74 0 00-.951-.953c-.48-.334-.967-.457-.989-.463a.953.953 0 00-.353-.058.866.866 0 00-.004 0 .99.99 0 00-.916.834.988.988 0 00.672 1.039l-.037-.012s.109.039.242.094.3.145.29.138c.132.092.387.347.466.461.089.13.146.277.197.465.003.012 0 .013.002.024-.157-.197-.364-.388-.461-.436a.866.866 0 000-.002 1.574 1.574 0 00-.738-.156.866.866 0 00-.006 0c-.305.004-.518.086-.666.135-.15.049-.389.13-.657.285-.335.194-.594.43-.794.586-.24.187-.594.489-.623.513l-.008.006a.866.866 0 00-.018.014l-.012.01a.866.866 0 00-.064.056l-.002.002a.866.866 0 00-.051 1.166l.078.094a.866.866 0 00.276.217c-.114.032-.229.062-.338.104-.098.037-.186.079-.26.119a.866.866 0 00-.002 0c-.084.045-.153.09-.21.127-.075.05-.112.078-.157.111l-.02-.012-.002-.002a2.44 2.44 0 01-.103-.08c-.081-.066-.178-.15-.291-.242a.866.866 0 00-.001-.002 1.586 1.586 0 00-.023-.02.866.866 0 00.187-1.023l-.002-.004a.866.866 0 00-.047-.082l-.021-.033.039.068c-.015-.028-.232-.456-.52-.832-.109-.15-.22-.259-.15-.185a5.03 5.03 0 00-.473-.494 3.034 3.034 0 00-.7-.498c-.407-.202-.714-.193-.892-.2-.023 0-.08-.013-.236-.004-.167.01-.336.077-.486.16.11-.233.247-.482.367-.63.15-.185.369-.373.49-.45-.016.01.406-.154.406-.154l-.103.024c.482-.078.857-.574.8-1.059-.056-.484-.535-.879-1.02-.844h-.003a.934.934 0 00-.21.041c-.02.004-.44.088-.89.371-.35.221-.673.516-.957.866a5.033 5.033 0 00-.693 1.172c-.159.366-.324.797-.375 1.304-.046.464-.023.947.137 1.424a.866.866 0 00.002.004c.152.445.415.795.666 1.057.148.155.318.224.478.34-.069.041-.135.078-.207.122-.16.1-.33.208-.504.33a7.357 7.357 0 00-.779.631 5.395 5.395 0 00-.5.55h.002a6.271 6.271 0 00-.226.306c-.146.212-.278.429-.399.637-.245.42-.456.827-.617 1.109a.866.866 0 00-.002.004 5.023 5.023 0 00-.256.52c-.069.159-.122.298-.166.406-.045.109-.082.189-.113.244a.866.866 0 000 .002.589.589 0 01-.041.062.866.866 0 00-.002.004 4.148 4.148 0 01-.242.234.866.866 0 00-.002.003 1.268 1.268 0 01-.141.103.866.866 0 00-.002.002c-.015.009-.027.014-.041.02a.27.27 0 01-.066.02.35.35 0 01-.05 0h-.001a.213.213 0 01-.035-.015.784.784 0 01-.08-.046 1.874 1.874 0 01-.118-.084 8.532 8.532 0 01-.322-.268c-.12-.103-.26-.225-.426-.35a15.573 15.573 0 01-.863-.69l-.002.001c-.148-.127-.29-.255-.418-.377a5.463 5.463 0 01-.342-.36 9.09 9.09 0 01-.299-.36v-.003a4.65 4.65 0 01-.451-.686 5.423 5.423 0 01-.195-.398v-.002a4.66 4.66 0 01-.287-.855c-.04-.161-.077-.338-.115-.537v-.002c-.04-.2-.08-.424-.125-.678a.866.866 0 000-.002 18.517 18.517 0 01-.122-.78 31.914 31.914 0 01-.19-1.877l.001-.001a56.155 56.155 0 01-.06-1.082v-.01a23.68 23.68 0 01-.016-.64.866.866 0 000-.01c-.005-.24-.005-.507 0-.786a.866.866 0 000-.015c0-.565.013-1.184.025-1.76a.866.866 0 000-.002c.006-.298.01-.354.016-.545.294.148.577.327.89.44.54.193 1.125.363 1.88.505.771.146 1.854.274 2.622.336.756.061 1.275.075 1.977.055.724-.021 1.628-.097 2.336-.256.595-.134 1.155-.252 1.705-.656.578-.424.835-.938 1.123-1.389.345-.54.743-1.287 1.002-1.842.27-.577.406-1.047.531-1.343.191-.453.307-.717.252-.655.11-.124-.075-.008.147-.076-.001 0 .113-.021.242-.025zm5.28 9.361l.029.225a.866.866 0 00-.03-.225zM36.42 31.57c-.08.324-.139.578-.176.724l.045-.635a.764.764 0 00.131-.09zm3.106.146v.012l-.012.066.012-.078zm-3.313 1.04c-.02.212-.043.443.068.622.132.21.323.31.514.377-.183.688-.396 1.51-.53 2-.127.467-.184.666-.253.904.018-1.034.087-2.148.14-3.04a.866.866 0 000-.003c.019-.31.042-.572.061-.861zm-16.896 6.759s.074.03.08.035c.01.006.01.023.021.03z" color="#000" font-weight="400" font-family="sans-serif" overflow="visible" fill="#dbe5ee"/><path d="M27.83 8.824l7.717 7.25.584 9.588 1.462 1.257.672.643.468.906v1.082l-.175 1.93-.556 1.929-.643 2.397-.73 2.484.058.965-.234.79-.555.964-.556.526-.818.263-1.9 2.134-7.22 10.349-7.046 4.18-6.753-1.52L8.77 53.55l-4.21-8.448-1.841-4.56-.644-.585-.672-1.637.117-1.257.292-.673-.643-6.694-.058-1.579.204-.76.497-.555.702-1.374 1.14-10.32 4.093-6.313 10.903.555z" fill="#dbe5ee"/><path style="line-height:normal;font-variant-ligatures:normal;font-variant-position:normal;font-variant-caps:normal;font-variant-numeric:normal;font-variant-alternates:normal;font-feature-settings:normal;text-indent:0;text-align:start;text-decoration-line:none;text-decoration-style:solid;text-decoration-color:#000;text-transform:none;text-orientation:mixed;white-space:normal;shape-padding:0;isolation:auto;mix-blend-mode:normal;solid-color:#000;solid-opacity:1" d="M21.538.867c-1.355-.02-2.817.11-3.995.256-1.633.201-3.008.45-4.46.982-1.465.538-3.013 1.41-4.077 2.16-1.036.733-1.66 1.294-2.344 2.154-.548.689-1.354 1.662-1.66 2.686-.435.63-.555 1.356-.767 1.785-.454.915-.802 1.932-1.215 3.084-.411 1.146-1.021 2.748-1.308 4.028-.275 1.226-.37 2.117-.416 3.267-.047 1.208.092 2.694.173 3.683.06.735.157 1.3.216 1.768-.165.109-.31.243-.43.397-.09.083-.135.205-.189.315-.238.507-.188 1.042-.194 1.313-.013.544.132.89.16 1.197.034.356.02.92.068 1.49.047.556.143 1.112.197 1.6v.001c.058.516.102.95.152 1.522.029.32.079.688.115 1.02.036.329.05.652.037.745-.02.153-.03.15-.106.293-.072.136-.216.397-.25.752 0 .01 0 .021-.002.032v.003c-.049.596.104 1.212.229 1.618.124.404.27.707.491 1 .13.173.278.304.413.417.078.765.173 1.538.356 2.46.307 1.55.838 3.281 1.364 5.026a108.252 108.252 0 001.842 5.552c.537 1.458.736 2.47 1.53 3.806l.004.005c.036.063.075.128.116.195.861 1.404 2.28 2.96 3.454 3.988 1.16 1.016 2.348 1.816 3.422 2.24 1.012.402 1.655.469 2.543.444.932-.027 1.723-.21 2.99-.686 1.294-.486 3.088-1.354 4.651-2.481 1.531-1.104 3.268-2.586 4.482-4.264 1.216-1.68 1.744-3.35 2.525-5.316.816-2.056 1.596-4.84 2.231-6.858.3-.954.608-1.806.894-2.652a1.332 1.332 0 00.754-.23c.146-.104.238-.21.322-.297.338-.352.547-.821.69-1.129l.018-.038v-.004c.14-.303.271-.62.324-.971.029-.196.024-.365.012-.493a2.733 2.733 0 00-.028-.23c-.004-.26-.024-.36-.005-.463-.005.025.03-.08.08-.201.049-.122.113-.286.177-.488v-.001l.01-.027v-.002c.109-.346.182-.634.346-1.234.173-.636.47-1.799.662-2.497.187-.68.38-1.189.514-1.818v-.006l.004-.016a10.45 10.45 0 00.24-1.691l.003-.04c.028-.54.084-1.26-.106-1.875a2.616 2.616 0 00-.238-.59 1.357 1.357 0 00-.351-.39c.199-.602.277-1.315.378-2.131.13-1.058.173-2.57.177-3.752.004-1.18-.026-2.403-.14-3.408-.109-.96-.215-1.743-.53-2.805 0-.002 0-.004-.003-.01v-.001-.001h-.001a14.22 14.22 0 00-.582-1.505.73.73 0 00-.018-.628s-.909-1.708-1.657-2.88c-.727-1.139-1.834-2.813-2.798-3.966-.903-1.08-1.723-2.169-2.853-2.863l-.046-.028h-.005c-1.095-.656-1.954-.644-2.969-.963-1.039-.327-2.386-1.019-4.098-1.251-.48-.065-.995-.096-1.525-.104h-.001zm17.12 30.898l.002-.013v-.003zM7.242 10.91c2.17.066 7.193.3 9.206 1.094 2.583 1.02 2.853 2.18 5.176 3.223 2.324 1.043 6.976 1.534 8.666 2.34 1.69.806 1.831 1.324 1.831 1.324s-.373-1.076-.635-1.474c-.261-.397-.858-.905-.858-.905s1.06.412 1.405.706c.345.293 1.023.765 1.023.765s-.587-1.241-.944-1.757c-.358-.515-1.168-1.259-1.168-1.259s.77.286 1.072.548c.363.316.565.458.861.834.297.375.834 1.31.834 1.31s-.635-2.029-1.028-2.691c-.392-.663-1.126-1.325-1.126-1.325s.459.286.945.618c.347.51.677 1.032.896 1.6.575 1.493.888 3.194 1.084 4.736.12.95.115 1.866.108 2.774a9.13 9.13 0 01-1.108-.102c-.308-.047-.481-.11-.921-.188-.168-.03-.397-.065-.621-.1-.016-.317-.017-.636-.086-.9-.083-.32-.141-.512-.358-.805-.217-.293-.63-.597-.986-.855s-.734-.509-1.14-.684a5.215 5.215 0 00-1.273-.36c-.373-.05-.504-.041-.93.01-.428.051-1.093.244-1.607.371-.514.128-1.006.282-1.476.395-.47.113-.981.177-1.346.288-.365.11-.638.156-.848.336-.21.18-.337.379-.375.645-.039.267.013.597.207.847.193.25.558.387.903.486.065.02.131.031.197.043-.098.016-.204.032-.294.048-.68.124-1.168.296-1.676.4-.508.104-.911.191-1.37.234a7.449 7.449 0 01-1.368.024c-.436-.042-.68-.122-1.228-.258-.548-.136-1.369-.408-2.053-.588-.685-.18-1.334-.355-2.055-.493-.144-.028-.292-.05-.437-.076.338-.049.684-.129.921-.241.287-.136.453-.266.59-.448.136-.182.2-.381.223-.582.023-.201.027-.394-.08-.586-.106-.191-.218-.286-.557-.46-.339-.176-.871-.246-1.511-.407a89.149 89.149 0 00-2.331-.547c-.62-.134-.96-.227-1.383-.275a5.404 5.404 0 00-1.147-.035c-.393.035-.868.067-1.193.246-.325.18-.508.475-.701.729-.194.253-.278.455-.463.774-.185.318-.474.804-.641 1.14-.033.065-.056.118-.086.178.052-.362.104-.725.163-1.08.212-1.268.545-2.856.78-3.97.235-1.115.37-1.982.613-2.718s.35-1.06.753-1.705c.19-.304.585-.775.951-1.192zm.095 9.842c.057 0 .128.003.223.013.382.039.951.467 1.508.688.265.106.577.232.885.345a45.847 45.847 0 00-2.202-.057c-.703-.003-1.185.026-1.76.041l.13-.124c.252-.228.552-.613.81-.749.193-.102.236-.154.406-.157zm20.648 1.129a2.85 2.85 0 011.12.234c.297.138.578.368.815.594-.22-.025-.443-.05-.711-.075-.638-.06-1.483-.15-2.196-.164a18.16 18.16 0 00-1.236.02c.378-.11.762-.237 1.011-.315.375-.117.462-.183.695-.23.175-.035.323-.062.502-.064zm-19.993.515c.355.005.723.015 1.045.027.643.022 1.25.046 1.841.106s1.16.145 1.7.246 1.075.197 1.534.353c.46.155.917.347 1.216.552.3.205.461.346.602.588.141.242.185.485.213.81.028.325-.01.687-.095 1.116-.086.43-.274.978-.46 1.434-.186.455-.4.882-.65 1.292-.248.41-.509.886-.837 1.163-.328.277-.545.354-1.027.505-.482.151-1.24.241-1.865.282-.626.042-1.284-.005-1.877-.035-.592-.03-1.008-.042-1.676-.14-.667-.1-1.721-.318-2.313-.494-.592-.176-.984-.34-1.251-.482-.268-.141-.24-.116-.39-.27-.15-.154-.3-.349-.449-.682-.095-.214-.172-.514-.241-.821.12-.524.302-1.13.393-1.673.096-.565.117-.983.18-1.606a.476.476 0 00.228.082c.171.014.278-.025.48-.233.2-.208.3-.725.488-1.098.174-.347.301-.614.505-.882l.47-.042c.438-.043.715-.077 1.263-.094.273-.009.617-.01.973-.004zm19.21.697c.457 0 .94.013 1.405.047.465.033.91.092 1.38.152l.47.06c.02.034.041.064.061.1.164.292.234.651.357 1 .122.347.262.847.377 1.086.115.239.121.318.233.37.113.053.188.033.304-.04.117-.072.214-.176.287-.429.073-.253-.012-.686-.031-1.061-.013-.236-.034-.491-.056-.745.227.057.438.118.596.188.282.125.413.199.554.353.14.154.206.277.272.528.066.252.048.579.035.964a9.83 9.83 0 01-.142 1.339c-.075.39-.164.637-.283.998-.119.361-.286.81-.437 1.164-.15.354-.236.72-.46.963-.224.242-.503.322-.791.458a5.769 5.769 0 01-.932.353c-.37.106-.852.193-1.287.258-.435.065-.851.104-1.322.13-.47.024-.983.03-1.499.011a18.763 18.763 0 01-1.593-.129c-.522-.065-1.133-.119-1.535-.259-.401-.14-.604-.241-.873-.482-.269-.24-.503-.614-.673-.95-.17-.338-.214-.646-.342-1.047-.129-.401-.331-.969-.425-1.363-.094-.393-.139-.602-.147-.834a2.963 2.963 0 01.017-.54c.023-.202.042-.602.107-.822.065-.22.121-.335.235-.494.114-.158.259-.308.449-.434.19-.127.375-.19.684-.294.31-.104.79-.224 1.18-.294.391-.07.743-.086 1.158-.13.415-.042.888-.099 1.333-.128.445-.03.877-.047 1.334-.047zm-8.976 2.134c.173-.005.35.002.502.015.301.027.574.074.767.188.193.115.213.195.306.385.092.19.146.41.225.744.079.334.202.75.354 1.245.152.494.373 1.259.566 1.715.194.456.336.77.544 1.034.207.265.335.382.637.564.301.182.719.326 1.18.446.461.12 1.086.181 1.582.235.496.054.869.087 1.393.094.523.007 1.164-.031 1.746-.07.583-.04 1.159-.06 1.747-.165.589-.105 1.363-.298 1.77-.47.409-.172.482-.227.709-.423.226-.195.383-.445.564-.76.18-.314.335-.697.474-1.12.14-.422.291-1.03.402-1.41.11-.379.164-.598.26-.868.095-.27.175-.583.306-.752.13-.168.212-.195.375-.28.079 1.377.229 2.958.226 3.861 0 1.016-.27 1.674-.107 1.705.024.004.085.003.133.004l-.007.01a.42.42 0 00-.04.108s0 .18-.006.473a73.45 73.45 0 01-.028 1.145c-.016.448-.038.939-.07 1.403-.017.232-.034.458-.056.669a10.427 10.427 0 01-.167 1.098c-.035.175-.074.35-.115.527-.084.352-.179.706-.281 1.055a28.87 28.87 0 01-.323 1.027c-.112.333-.225.655-.336.96-.11.305-.213.605-.318.898-.103.292-.208.577-.32.85a9.98 9.98 0 01-.172.402c-.06.13-.123.258-.19.382a5.538 5.538 0 01-.209.36 4.395 4.395 0 01-.236.336 5.587 5.587 0 01-.798.836 6.335 6.335 0 01-.586.446c-.102.07-.205.137-.31.203a21.248 21.248 0 01-1.392.789 13.53 13.53 0 01-.805.379c-.135.057-.27.109-.401.154-.132.046-.261.086-.386.117a2.826 2.826 0 01-.36.068 1.797 1.797 0 01-.322.008c-.1-.008-.192-.02-.274-.033a1.997 1.997 0 01-.227-.051 1.179 1.179 0 01-.489-.267 1.982 1.982 0 01-.132-.131c-.087-.095-.175-.204-.277-.33a1.103 1.103 0 01-.131-.205 1.66 1.66 0 01-.095-.237 3.238 3.238 0 01-.07-.26c-.02-.091-.04-.185-.058-.28-.038-.19-.075-.389-.13-.586a3.041 3.041 0 00-.095-.296 2.398 2.398 0 00-.131-.287 7.786 7.786 0 00-.37-.593 9.774 9.774 0 00-.955-1.177 6.567 6.567 0 00-.248-.245 4.55 4.55 0 00-.24-.21 14.107 14.107 0 00-.417-.327 7.063 7.063 0 00-.353-.25 5.397 5.397 0 00-.333-.202 7.946 7.946 0 00-.742-.363 6.378 6.378 0 00-.394-.154 5.149 5.149 0 00-.4-.123 4.18 4.18 0 00-.404-.085 2.955 2.955 0 00-.438-.026 4.03 4.03 0 00-.474.038 4.586 4.586 0 00-.463.089 3.48 3.48 0 00-.403.124 1.432 1.432 0 00-.3.157c-.085.055-.157.112-.228.161-.035.025-.07.047-.106.066a.53.53 0 01-.236.071.774.774 0 01-.302-.052c-.05-.019-.1-.044-.149-.072a1.742 1.742 0 01-.146-.096 3.31 3.31 0 01-.143-.112c-.096-.077-.19-.16-.288-.24a3.48 3.48 0 00-.15-.114 1.918 1.918 0 00-.153-.1.943.943 0 00-.167-.076 1.197 1.197 0 00-.184-.046 1.68 1.68 0 00-.197-.022 2.752 2.752 0 00-.205-.002c-.14.004-.283.018-.424.037-.142.018-.281.04-.414.06-.133.019-.234.04-.319.066a1.176 1.176 0 00-.226.095c-.142.077-.286.185-.563.346-.139.08-.286.167-.437.261a9.548 9.548 0 00-.462.303 6.478 6.478 0 00-.68.55 3.693 3.693 0 00-.412.451 5.48 5.48 0 00-.195.266 9.358 9.358 0 00-.364.581c-.232.397-.438.797-.613 1.103a4.227 4.227 0 00-.215.438c-.06.138-.11.269-.16.391-.05.123-.101.238-.16.343-.03.053-.062.103-.098.151a1.16 1.16 0 01-.118.138c-.087.087-.172.17-.259.244a1.62 1.62 0 01-.41.268 1.095 1.095 0 01-.5.087.84.84 0 01-.187-.03c-.06-.018-.12-.04-.18-.069a1.601 1.601 0 01-.176-.1 2.742 2.742 0 01-.174-.124c-.117-.09-.235-.192-.357-.297a8.086 8.086 0 00-.386-.315 16.342 16.342 0 01-.905-.724c-.156-.134-.31-.272-.455-.411a6.311 6.311 0 01-.398-.416 9.832 9.832 0 01-.327-.398 5.516 5.516 0 01-.756-1.268 5.538 5.538 0 01-.334-1 12.78 12.78 0 01-.125-.578c-.04-.21-.082-.438-.127-.693a19.464 19.464 0 01-.127-.818c-.04-.289-.075-.595-.108-.917a33.002 33.002 0 01-.086-1.016 56.856 56.856 0 01-.063-1.11 24.953 24.953 0 01-.017-.676c-.005-.253-.005-.53 0-.818 0-.577.014-1.202.027-1.779.016-.815.028-1.143.04-1.494.046-.014.087-.063.138-.183.08-.186.074-.41.063-.666.028.063.057.125.086.18.144.28.203.427.496.665.293.239.732.415 1.24.596.507.182 1.034.335 1.747.47.712.135 1.798.264 2.534.324.736.059 1.2.072 1.88.052.679-.02 1.573-.1 2.172-.235.599-.135.984-.218 1.383-.51.398-.292.598-.674.907-1.158.308-.484.705-1.227.944-1.739s.364-.948.52-1.316c.154-.367.222-.691.4-.893.178-.201.288-.25.543-.329.128-.039.295-.057.467-.062zM2.096 26.934c-.002 1.052-.003.618-.005 1.896.003.548-.258.877.142 1.012.112.037.194.08.263.117l-.008.14a51.678 51.678 0 00-.05 4.39c.045 1.476.18 3.042.32 4.456.067.435.092 1.096-.008 1.29l-.063-.051a2.427 2.427 0 01-.41-.404c-.194-.257-.313-.503-.428-.878-.119-.386-.256-.975-.212-1.483v-.015-.002c.026-.269.132-.464.206-.604.072-.136.124-.237.149-.428.025-.197 0-.497-.037-.838-.037-.34-.086-.707-.113-1.012-.05-.57-.095-1.005-.152-1.517v-.014c-.057-.506-.152-1.057-.197-1.591-.046-.54-.03-1.091-.068-1.492-.037-.389-.17-.684-.16-1.152.01-.389-.046-.953.3-1.394.117-.15.262-.277.427-.369zm35.477.494c.194.011.4.103.646.325.088.149.14.305.201.506.16.517.114 1.225.087 1.779v.002a10.12 10.12 0 01-.237 1.649c-.127.595-.317 1.098-.508 1.795-.194.706-.491 1.87-.663 2.498-.169.62-.239.901-.35 1.247v.001c-.06.188-.12.341-.168.46-.048.117-.083.175-.102.279-.032.18-.005.3-.002.539.001.093.02.152.03.26.01.107.013.242-.01.399-.045.302-.166.598-.308.903-.003.004-.006.011 0 0l-.001.001v.001c-.145.31-.347.74-.617 1.022-.093.096-.16.172-.265.247a.945.945 0 01-.373.147.779.779 0 01-.264.003l-.162-.022s.064.076.536-2.464c.316-1.836.144-3.72.247-5.44.053-.89.11-1.67.172-2.468.198-.035.375-.087.433-.163.139-.184.21-1.032.279-1.484.07-.451-.054-.928.145-1.222.2-.294.417-.508.675-.639.202-.102.385-.172.579-.16zm-.194 1.543a1.162 1.162 0 00-.632.166c-.12.077-.221.209-.307.328-.086.119-.15.225-.15.225-.068.13.117.24.199.118 0 0 .058-.096.138-.206.08-.11.19-.236.245-.272a.98.98 0 01.689-.11.16.16 0 01.093.054c.032.036.03.03.032.064.002.034-.004.109-.002.23.005.221-.031.451-.133 1-.099.534-.543 2.252-.543 2.252-.053.157.192.221.223.06 0 0 .443-1.702.549-2.268.102-.552.14-.8.134-1.047-.002-.113.007-.175.002-.243a.352.352 0 00-.085-.199.416.416 0 00-.213-.127 1.044 1.044 0 00-.239-.025zm-23.147 4.223a.093.093 0 00-.013.001.092.092 0 00-.015.004s-.415.112-.674.276c-.248.156-.522.4-.746.677a4.3 4.3 0 00-.57.97c-.146.335-.273.685-.31 1.048-.035.358-.008.75.096 1.062.106.309.265.521.473.739.216.225.54.44.79.556.248.116.455.144.638.168.194.026.364.016.496.006.143-.01.32-.049.32-.049a.092.092 0 10-.039-.18s-.176.04-.295.048c-.13.009-.286.017-.459-.006-.183-.025-.36-.048-.584-.153a2.788 2.788 0 01-.734-.517c-.2-.209-.336-.39-.432-.67-.092-.276-.12-.651-.086-.987.033-.331.151-.665.293-.992a4.15 4.15 0 01.545-.927c.212-.261.475-.495.702-.637.214-.135.626-.254.626-.254a.093.093 0 00-.022-.183zm6.567.605a.092.092 0 00-.023.18s.512.18.74.338c.24.167.522.444.686.683.164.24.254.489.318.726.064.238.088.4.076.655-.011.248-.083.57-.176.844-.093.275-.21.545-.373.771a2.393 2.393 0 01-.594.584c-.195.121-.328.14-.537.186-.202.044-.48.086-.63.06-.145-.024-.354-.16-.354-.16a.092.092 0 10-.103.15s.211.156.427.192c.21.035.49-.017.7-.063.204-.044.373-.072.593-.208.224-.14.471-.386.649-.633.178-.25.3-.537.396-.82.098-.287.172-.618.184-.894a2.115 2.115 0 00-.08-.71v-.002a2.518 2.518 0 00-.346-.782 3.104 3.104 0 00-.73-.73c-.277-.192-.788-.361-.788-.361a.092.092 0 00-.035-.006zm-7.031 2.349a.269.269 0 00-.133.044c-.085.056-.131.141-.159.263-.031.14.005.327.038.472.034.14.065.278.17.415.104.137.267.258.44.337.176.08.406.13.58.12a.73.73 0 00.402-.137c.123-.089.188-.242.233-.303l.057-.078.441.712.002.004.107-.06-.002-.004-.021-.034c-.025-.047-.278-.532-.465-.756-.016-.027-.045-.046-.065-.067a4.469 4.469 0 00-.423-.443 2.541 2.541 0 00-.507-.371c-.172-.085-.409-.104-.543-.11-.063-.002-.108-.007-.153-.004zm6.727.1a1.406 1.406 0 00-.411.092 2.287 2.287 0 00-.491.213c-.209.12-.475.345-.696.518-.22.173-.626.514-.638.524l-.008.006.077.096v-.001l.678-.54-.014.146c-.006.054-.018.13-.028.204a.928.928 0 00-.012.209c.005.046.005.078.014.113.009.036.03.07.061.102.078.08.195.098.307.115.116.018.233.016.395-.012.164-.03.406-.098.575-.188a1.492 1.492 0 00.656-.702.943.943 0 00.112-.316c.013-.111.014-.243-.038-.343v-.001c-.045-.087-.105-.125-.188-.165a.806.806 0 00-.35-.07zm-5.729 7.384a1.238 1.238 0 01.361.06c.15.047.295.112.47.172.088.03.182.074.278.123.097.05.196.106.293.16.098.053.195.104.288.145.046.02.091.038.135.052a.767.767 0 00.126.03c.08.012.143.019.196.02a.7.7 0 00.143-.012c.092-.017.19-.054.376-.108.093-.027.208-.075.335-.134.127-.058.267-.125.411-.19.072-.031.145-.063.218-.092.073-.029.146-.055.217-.077.072-.023.142-.04.21-.053a.853.853 0 01.393.006c.068.016.139.04.212.07.073.03.148.065.225.105.077.04.155.083.234.13.159.092.32.196.483.296.161.1.323.199.479.281.156.083.307.163.454.244.146.08.29.161.432.246a10.22 10.22 0 01.855.57c.146.108.275.2.39.28.114.083.214.156.304.229a2.163 2.163 0 01.242.23 1.582 1.582 0 01.2.29 1.922 1.922 0 01.224.703c.018.125.028.255.033.394.005.138.007.285.006.444 0 .158-.011.333-.032.518-.02.185-.05.38-.085.575a13.026 13.026 0 01-.254 1.11 7.717 7.717 0 01-.294.873c-.109.27-.23.538-.375.852-.072.156-.146.324-.224.497-.078.173-.16.352-.247.528a7.127 7.127 0 01-.283.52 4.442 4.442 0 01-.33.477c-.12.147-.241.291-.368.43a6.17 6.17 0 01-.4.395 4.233 4.233 0 01-.446.346 3.507 3.507 0 01-1.075.478 4.192 4.192 0 01-.598.112 5.901 5.901 0 01-.652.043c-.228.004-.468-.001-.724-.013a6.07 6.07 0 01-.406-.034 12.221 12.221 0 01-1.38-.256c-.315-.075-.628-.16-.919-.247a14.192 14.192 0 01-.793-.26c-.231-.085-.442-.157-.636-.228a7.28 7.28 0 01-.54-.213 2.768 2.768 0 01-.683-.424c-.07-.06-.139-.126-.207-.198a2.158 2.158 0 01-.188-.23 2.623 2.623 0 01-.158-.252 3.426 3.426 0 01-.134-.27 5.141 5.141 0 01-.116-.285 11.78 11.78 0 01-.2-.597c-.063-.202-.126-.406-.196-.607a22.2 22.2 0 01-.208-.627 16.396 16.396 0 01-.192-.656c-.06-.22-.113-.44-.158-.656a7.673 7.673 0 01-.105-.623 10.195 10.195 0 01-.056-.594 7.885 7.885 0 01-.017-.572c0-.185.01-.363.024-.531a3.65 3.65 0 01.307-1.163c.047-.096.098-.185.154-.272.057-.086.12-.171.19-.26a1.733 1.733 0 01.226-.237 3.04 3.04 0 01.254-.2c.178-.127.37-.247.569-.395.198-.148.421-.322.65-.49.114-.083.23-.165.344-.24a4.81 4.81 0 01.337-.207c.109-.06.218-.122.326-.18.108-.058.215-.113.32-.162.107-.049.211-.09.314-.123a1.64 1.64 0 01.3-.062h.001c.05-.004.095-.005.14-.004zm.551 1.188a2.978 2.978 0 00-1.31.259c-.545.242-.992.658-1.368 1.008-.158.146-.314.262-.488.442a1.95 1.95 0 00-.449.745c-.082.252-.137.505-.09.768.028.162.074.276.125.38a15.349 15.349 0 00.404 2.159c.123.458.221.855.43 1.32.21.467.565 1.083.843 1.449.279.366.447.535.755.774.308.238.657.477 1.091.625.435.147.974.156 1.478.2.504.044 1.088.107 1.543.063.455-.044.853-.099 1.165-.277.312-.18.54-.508.789-.787.248-.28.455-.57.694-.895.24-.325.436-.584.616-.958.18-.373.28-.792.428-1.28.135-.445.374-1.361.419-1.535.113-.187.21-.408.216-.735.005-.205-.022-.571-.201-.886-.229-.402-.62-.842-.98-1.204-.34-.342-.74-.728-1.201-.992a3.287 3.287 0 00-1.216-.428c-.509-.066-.887.059-1.106.077-.363.032-.685.086-.84.08-.21-.007-.298-.038-.61-.102-.136-.028-.565-.255-1.136-.27z" color="#000" font-weight="400" font-family="sans-serif" overflow="visible" fill="#112154"/></svg>