<svg xmlns="http://www.w3.org/2000/svg" width="150.441" height="245.744" viewBox="0 0 39.804 65.02"><path d="M25.554 10.665l9.384 5.664.579 11.492-.248 1.158 1.53-.827.661.083.41.498.116.935-.234 1.52-.964 3.274-.848 2.894-.088.819.059.818-.263 1.199-.702.935-.643 2.017-.79 2.953-4.121 6.87-5.905 3.566-7.571.877-4.648-1.14-4.736-5.642-2.982-4.063-.438-3.86-.41-6.343-.263-5.992.497-4.56.614-9.033L5.626 12.8l7.659-1.93z" fill="#dbe5ee"/><path style="line-height:normal;font-variant-ligatures:normal;font-variant-position:normal;font-variant-caps:normal;font-variant-numeric:normal;font-variant-alternates:normal;font-feature-settings:normal;text-indent:0;text-align:start;text-decoration-line:none;text-decoration-style:solid;text-decoration-color:#000;text-transform:none;text-orientation:mixed;white-space:normal;shape-padding:0;isolation:auto;mix-blend-mode:normal;solid-color:#000;solid-opacity:1" d="M21.433 1.8a1.173 1.173 0 00-.205.015 29.147 29.147 0 00-3.928.268c-1.49.2-3.046.485-4.56 1.06-1.495.568-2.9 1.35-4.177 2.274-.872.63-1.725 1.379-2.435 2.293-.533.685-1.535 1.751-1.738 3.296-.131.223-.719 1.218-1.125 2.055-.45.928-.886 2.08-1.227 2.885-.384.905-.703 1.795-.85 2.498-.14.671-.29 1.457-.312 2.451-.018.86-.06 1.97.076 3.211.057.514.147.965.235 1.438l-.11.04c0 .001-.201.172-.256.24-.109.14-.141.225-.168.29-.053.129-.061.185-.072.236-.021.102-.028.161-.035.229-.015.134-.026.276-.037.431-.023.31-.05.675-.076.864a1.173 1.173 0 00.04.517c.02.061.038.099.057.153-.05.356-.126.752-.088.962a1.173 1.173 0 000 .002c.038.203.079.471.137.748.007.032.025.275.053.62a7.03 7.03 0 00.201 1.13l.203.899c.002.56.013 1.342.072 2.385.11 1.936.5 6.208.64 8.138.136 1.907.044 2.686.257 3.844.217 1.185.71 2.326.717 2.342l.002.006c.003.009 1.032 2.614 2.058 4.213 1.056 1.644 3.469 4.232 3.469 4.232a1.173 1.173 0 00.035.037c.002.002.495.558 1.195 1.264.698.703 1.514 1.507 2.362 2.03 1.467.903 3.138 1.328 4.252 1.577a10.82 10.82 0 001.787.229c.505.026.97.017.933.017.197 0 .335-.02.52-.046.207-.03.456-.071.734-.124.567-.107 1.244-.258 1.877-.52.703-.288 1.422-.764 2.059-1.19.614-.411 1.079-.75 1.115-.776l.041-.027a1.173 1.173 0 00.113-.096c.193-.138 2.696-1.928 4.096-3.27 1.326-1.27 1.925-2.03 3.688-4.23a1.173 1.173 0 00.002 0l.015-.02a1.173 1.173 0 00.133-.208l.01-.02a1.173 1.173 0 00.016-.031c.95-2.055.964-2.18 1.306-3.205.38-1.138.673-2.339.916-3.44.263-1.188.566-3.194.574-3.248a1.173 1.173 0 00.014-.178v.094l.176-1.058c.317-.431.655-.898.76-1.194.222-.629.265-1.226.289-1.658.035-.648-.038-1.027-.06-.848-.014.104.035-.138.087-.294.052-.157.102-.288.102-.288l-.008.016a1.173 1.173 0 00.045-.133l.51-1.902a1.173 1.173 0 00.005-.03l.004-.013c.005-.018.248-1 .403-1.502.133-.433.501-1.222.709-2.035.162-.637.308-1.275.308-1.973 0-.18.023-.453-.002-.803-.025-.352-.111-.895-.535-1.367-.271-.302-.677-.317-1.047-.453.11-.546.356-1.902.617-3.48.14-.842.274-1.689.371-2.4.097-.705.181-1.19.153-1.721-.055-1.017-.19-1.966-.424-2.686-.846-2.719-.36-2.292-2.262-5.766a1.173 1.173 0 00-.049-.08c-.867-1.326-1.778-2.691-2.873-3.97-.807-.944-1.7-2.054-2.963-2.907-1.06-.716-2.197-1.087-3.2-1.404-1.361-.43-2.792-.754-4.266-.875a1.173 1.173 0 00-.012-.002l-.028-.002a1.173 1.173 0 00-.123 0 20.782 20.782 0 00-1.298-.057zM7.09 14.03c.51.004 1.528.003 3.308.103 2.174.123 4.746.434 5.657.782 1.142.436 1.684.85 2.341 1.367.658.516 1.438 1.157 2.715 1.713 1.35.587 3.088.926 4.729 1.256 1.64.329 3.226.679 3.763.927.756.35 1.108.616 1.231.729.061.056.066.073.045.04-.021-.031-.104-.237-.104-.237l1.196-.381c.031.021.181.132.181.132a1.173 1.173 0 001.307.004c.114.672.217 1.605.223 2.553.005 1-.03 1.622-.04 1.826a2.248 2.248 0 00-.874-1.039c-.504-.334-1.07-.388-1.438-.388-.115 0-.222.001-.324.003a1.173 1.173 0 00-.004 0c-.658.016-1.157.2-1.656.346-.685.199-1.36.52-1.778.645-.449.134-.935.19-1.57.373-.618.178-1.094.39-1.555.529-.17.051-.48.111-.818.182-.338.07-.696.127-1.129.359-.272.146-.455.449-.691.682-.316.081-.614.164-.84.21-.523.108-.882.184-1.258.22-.424.04-.84.053-1.16.023-.336-.032-.49-.09-1.069-.233h-.002c-.465-.115-1.308-.393-2.056-.59-.515-.135-1.03-.269-1.578-.392-.297-.105-.56-.173-.787-.254-.579-.204-1.4-.45-1.979-.621-.553-.163-.988-.307-1.592-.436-.417-.088-1.024-.274-1.736-.293h-.004a3.284 3.284 0 00-.314.006c-.753.052-1.344.313-1.795.516-.367.165-.67.385-.977.598h-.012l.188-1.787.87-5.237s.395-1.985.618-2.62c.164-.468.51-1.113.768-1.616zM3.069 26.79c-.001.002 0 .004-.002.007l-.006.006zm3.957 1.869c.144-.04.63-.02 1.057.06.257.049.481.195 1.064.403.372.132.966.43 1.668.572.636.128 1.14.088 1.438.098.312.01.713.105 1.33-.024.327-.068.802-.225 1.158-.56.056.029.19.076.219.095.256.175.21.136.256.215.023.04.037.057.06.33.015.165-.003.423-.078.797-.06.299-.233.822-.4 1.232-.167.408-.352.78-.57 1.141-.27.445-.54.832-.602.885-.22.186-.155.139-.629.287-.279.087-1.03.196-1.611.234-.522.035-1.145-.005-1.758-.037-.61-.031-.963-.04-1.58-.13-.603-.09-1.686-.319-2.174-.463-.542-.162-.867-.303-1.049-.399-.29-.154.053.106-.103-.055-.075-.077-.119-.12-.221-.35-.042-.093-.184-.643-.281-1.103-.07-.327-.12-.672-.162-1.008l.084-.794c.052-.002.16.046.2.044.687-.017.901-.27 1.145-.431.245-.16.454-.312.551-.37.654-.387.925-.652.988-.67zm20.586.254h.002c.439 0 .9.013 1.332.045.425.03.851.085 1.328.146.488.063 1.015.128 1.366.201.199.042.376.084.543.127.114.074.211.152.375.217.044.018.136-.008.19.008 0 .01-.007-.017 0 .006-.01-.037.01.233-.003.634a1.173 1.173 0 000 .002c-.01.321-.066.883-.121 1.17-.06.314-.125.482-.25.864-.109.33-.27.766-.404 1.082-.204.479-.32.713-.248.634.016-.017-.043.013-.44.202a4.51 4.51 0 01-.763.287c-.28.08-.736.167-1.147.228-.4.06-.781.096-1.227.12a16.024 16.024 0 01-2.916-.112c-.558-.07-1.16-.154-1.306-.205-.355-.124-.31-.096-.486-.254-.074-.066-.282-.35-.415-.613-.08-.16-.117-.39-.275-.885-.141-.442-.341-1.018-.406-1.291-.093-.388-.113-.505-.117-.615-.008-.207-.008-.197.011-.371.033-.3.094-.72.067-.63.044-.15-.002-.052.064-.144.043-.06.084-.1.153-.146.007-.005.05-.02.058-.024.125.041.263.133.383.162.643.158 1.237.115 1.8.016.638-.112 1.028-.34 1.473-.518.245-.097.495-.212.746-.326.211-.008.422-.017.633-.017zm-9.029 2.154h.002c.108-.003.249.003.371.014.135.012.11.007.154.017.021.06.051.14.116.412.092.391.221.827.377 1.332.147.481.36 1.248.613 1.846.2.473.38.894.707 1.31.25.32.59.626.959.848.478.289.98.447 1.502.582.62.161 1.274.217 1.767.27.514.055.946.092 1.516.1.597.007 1.262-.033 1.857-.073.564-.038 1.194-.057 1.893-.182.663-.118 1.425-.29 2.037-.548.45-.19.786-.415 1.026-.621.078-.068.094-.14.16-.21-.015.49.001.81-.028 1.126-.11 1.22-.332 2.141-.566 3.435-.247 1.37-.436 3.13-.705 3.776-.336.805-.647.991-1.266 1.7-.532.61-1.249 1.32-1.494 1.466-.247.145-.38.215-.457.25-.118-.145-.318-.411-.682-.707-.668-.545-2.416-1.82-2.416-1.82a1.173 1.173 0 00-.045-.032s-1.05-.674-2.048-1.12c.35-.467.716-1.04.736-1.782.016-.586.008-1.281-.256-2.004a3.177 3.177 0 00-1.037-1.426c-.466-.351-.921-.51-1.336-.629a4.774 4.774 0 00-1.082-.174 1.173 1.173 0 00-.527 2.258s.234.093.49.201c.256.108.65.327.482.215-.014-.01.116.103.34.42.033.046.093.29.12.658-.057-.02-.454-.166-1.034-.193a1.173 1.173 0 00-.004 0 1.817 1.817 0 00-.302.008c-.548.06-.95.314-1.17.439-.477.271-.767.573-.881.656-.264.192-.306.24-.518.364-.332.194-.778.386-.654.363-.104.019-.121.019-.307-.041-.084-.028-.127-.052-.342-.225.062.05-.156-.343-.746-.79-.295-.225-.691-.467-1.15-.579-.424-.103-.653-.069-.885-.059-.232.01-.422.032-.422.032a1.173 1.173 0 00-.177.033c.011-.219.024-.49.074-.67.082-.295.122-.37.256-.547.214-.283.296-.383.404-.463-.05.037.115-.06.248-.113.133-.053.234-.086.234-.086a1.173 1.173 0 00-.478-2.283s-.243.027-.533.088c-.29.06-.617.082-1.094.435-.294.217-.828.566-1.219 1.239a5.137 5.137 0 00-.611 1.66c-.08.438-.082.808-.055 1.125.032.38.06.933.486 1.554.01.015.08.08.096.104-1.174.385-2.21 1.066-2.933 1.5-.511.307-.869.643-1.12.846-.25.202-.355.24-.375.244-.15.024-.674-.145-1.058-.428-.233-.171-.484-.568-.692-1.027-.059-.131-.25-1.145-.25-1.145.001-.148.004-.284-.005-.496a86.42 86.42 0 00-.067-1.242c-.06-.992-.144-2.27-.232-3.565-.076-1.099-.106-1.488-.174-2.441.118.044.233.133.351.176.559.2 1.167.377 1.942.523.799.151 1.896.279 2.683.342.768.062 1.308.08 2.026.059a1.173 1.173 0 00.002 0c.749-.022 1.665-.097 2.416-.266.601-.135 1.224-.27 1.83-.715.643-.472.926-1.036 1.21-1.482.361-.565.76-1.318 1.028-1.89.283-.606.427-1.095.543-1.37.206-.488.341-.736.203-.58.085-.096-.204.078.012.012-.038.011.057-.01.164-.014zM3.38 31.47l.29.682c.002.016.005.027 0 .121 0 .023 0 .052-.007.1-.007.047-.059.236-.059.236l-.128.254-.233.21-1.18.19a84.91 84.91 0 00-.292-.137l-.098-.085-.135-.165s-.044-.067-.057-.09c-.025-.044-.034-.068-.043-.085l-.011-.026zM24.376 49.96l.06.005c-.004.063-.005.069-.042.301a9.478 9.478 0 01-.264 1.108c-.16.535-.448 1.014-.813 1.625-.487.814-.616 1.32-.787 1.482-.11.104-1.132.474-1.271.475a1.173 1.173 0 00-.002 0c-.27.001-.345-.021-.309-.008.036.013.051.06-.082-.115.215.282.011-.145.008-.68-.003-.535.188-1.118-.338-1.986-.068-.112-.134-.097-.203-.172.102-.019.164-.026.271-.047a20.93 20.93 0 001.68-.416c.689-.202 1.426-.572 1.426-.572a1.173 1.173 0 00.666-1zm-13.344.414a1.173 1.173 0 00.162.123s.777.515 1.473.806c.583.245 1.105.358 1.662.5-.02.02-.04.006-.06.028-.71.742-.718 1.558-.78 2.119-.023.207-.04.337-.058.463-.026-.008-.005.001-.125-.045.194.075-.341-.23-.666-.494-.264-.214-.41-.343-.489-.413-.142-.202-.278-.743-.812-1.652-.27-.46-.266-.849-.307-1.435z" color="#000" font-weight="400" font-family="sans-serif" overflow="visible" fill="#dbe5ee" fill-rule="evenodd"/><path style="line-height:normal;font-variant-ligatures:normal;font-variant-position:normal;font-variant-caps:normal;font-variant-numeric:normal;font-variant-alternates:normal;font-feature-settings:normal;text-indent:0;text-align:start;text-decoration-line:none;text-decoration-style:solid;text-decoration-color:#000;text-transform:none;text-orientation:mixed;white-space:normal;shape-padding:0;isolation:auto;mix-blend-mode:normal;solid-color:#000;solid-opacity:1" d="M21.417 2.973c-1.326-.015-2.654.096-3.96.271-1.45.195-2.917.469-4.301.994a17.01 17.01 0 00-3.904 2.127c-.81.586-1.578 1.265-2.198 2.063-.654.842-1.587 1.775-1.61 2.964v.006l.007.057.016.026c-.076.129-.76 1.29-1.149 2.09-.41.847-.844 1.99-1.2 2.831-.363.856-.67 1.743-.782 2.28-.137.66-.27 1.347-.289 2.238-.018.871-.053 1.92.072 3.058.09.815.294 1.65.418 2.544-.29.007-.583.014-.79.025-.052.006-.078.961-.154 1.493.037.119.082.23.129.344-.027.043-.054.087-.075.135-.12.27-.097.538-.053.776.04.222.083.48.133.72.043.205.048.462.072.766.027.34.174.951.174.951l.225.996v-.006l.004.022c0 .538.014 1.392.076 2.48.106 1.875.498 6.156.639 8.12.14 1.96.06 2.726.242 3.718.183.997.65 2.117.65 2.117.001.002 1.065 2.629 1.96 4.022.898 1.4 3.347 4.072 3.347 4.072.002.002.522.587 1.197 1.267.677.682 1.5 1.458 2.145 1.856 1.256.775 2.824 1.195 3.892 1.434a9.836 9.836 0 001.592.2c.463.025.819.018.873.018.083 0 .18-.014.36-.039.18-.024.415-.062.677-.111.525-.1 1.15-.247 1.647-.451.507-.21 1.236-.67 1.853-1.082a38.33 38.33 0 001.115-.776l.002-.002c.003-.002 2.785-2.013 4.09-3.263 1.287-1.233 1.82-1.914 3.584-4.115l.016-.02.01-.021c.947-2.045.91-2.037 1.26-3.083.358-1.073.643-2.238.882-3.32.242-1.094.56-3.173.561-3.175v-.002l.215-1.3.06-.054c.406-.33.587-.795.727-1.192.15-.427.204-.951.225-1.333.023-.418-.087-.678-.055-.93.031-.248.254-.844.254-.844l.004-.01.51-1.902v-.004s.243-1.002.423-1.584c.177-.573.531-1.342.694-1.979.155-.61.273-1.164.273-1.685 0-.236.017-.482 0-.719s-.07-.478-.238-.666a1.216 1.216 0 00-.978-.426c-.25.007-.491.158-.737.293.136-.393.287-.806.352-1.115.074-.358.373-1.99.65-3.66.139-.835.27-1.677.365-2.37.095-.695.158-1.22.143-1.499-.05-.936-.199-1.87-.367-2.385-.882-2.829-.287-2.114-2.176-5.564-.864-1.32-1.749-2.643-2.784-3.852-.818-.956-1.652-1.97-2.728-2.697-.887-.6-1.91-.944-2.898-1.256-1.298-.41-2.644-.715-4.008-.826l-.028-.002-.028.004a19.58 19.58 0 00-1.324-.059zM6.361 12.834s7.57.015 10.112.985 2.82 2.104 5.108 3.1c2.288.995 6.85 1.424 8.516 2.195 1.665.77 1.81 1.277 1.81 1.277s-.378-1.05-.64-1.436c-.26-.386-.85-.879-.85-.879s1.043.393 1.384.677c.341.284 1.01.738 1.01.738s-.588-1.21-.944-1.71c-.356-.501-1.158-1.221-1.158-1.221s.757.271 1.056.525c.36.305.559.442.853.807.295.364.832 1.275.832 1.275s-.646-1.981-1.037-2.626c-.392-.645-1.119-1.285-1.119-1.285s.819.49 1.425.933c.597.874 1.506 2.315 1.822 3.404.481 1.664.266 5.588.266 5.588l.028 2.829a9.283 9.283 0 01-.883-.09c-.187-.03-.344-.066-.522-.107-.056-.246-.148-.528-.218-.774-.112-.396-.23-.826-.414-1.204-.184-.38-.35-.837-.677-1.054-.246-.163-.503-.193-.792-.193-.096 0-.195.003-.3.005-.415.01-.831.149-1.354.3-.523.153-1.21.473-1.77.64-.559.168-1.058.226-1.58.377-.52.15-.997.362-1.542.526-.546.165-1.328.235-1.731.452-.404.217-.614.393-.715.64-.014.033-.02.061-.03.091-.405.1-.753.204-1.107.276-.513.105-.92.194-1.382.237a7.52 7.52 0 01-1.382.024c-.44-.042-.686-.123-1.24-.26-.554-.138-1.382-.412-2.074-.594-.535-.14-1.048-.278-1.59-.397-.243-.093-.54-.164-.867-.28a44.28 44.28 0 00-1.919-.602c-.571-.168-.965-.299-1.505-.414-.472-.1-1.035-.255-1.526-.268-.07-.002-.138 0-.205.004-.532.037-.956.217-1.393.414-.405.183-.8.438-1.126.693-.373.013-.749.027-1.12.038-.165.005-.351.008-.53.011l.333-3.156.878-5.295s.359-1.922.665-2.794c.307-.873 1.144-2.422 1.144-2.422zm24.405 13.452c.26.007.384.014.602.188.219.174.315.588.527.904l.13.195a59.037 59.037 0 00-.742-.105c-.564-.075-1-.128-1.644-.19-.43-.04-.952-.093-1.465-.128.61-.246 1.284-.51 1.689-.638.532-.168.643-.233.903-.226zM4.088 27.374l-.003.004c-.155.269-.16.405-.188.64-.028.235-.07.588.038.752.107.164.09.196.376.188.286-.007.757-.419 1.13-.64.43-.254.782-.655 1.278-.79.496-.134 1.106-.052 1.58.038.476.09.785.288 1.243.452.457.163 1.041.433 1.505.526.464.094.859.064 1.242.076.383.012.774.058 1.053 0 .28-.059.45-.115.602-.264a.798.798 0 00.264-.564c0-.024-.003-.048-.005-.072.064.019.13.036.191.057.464.157.926.35 1.228.558.302.206.466.349.608.593.142.244.186.49.214.818.029.329-.009.694-.095 1.127-.087.434-.277.988-.465 1.447-.188.46-.404.891-.655 1.306-.251.414-.515.894-.847 1.174-.331.28-.55.357-1.036.51-.487.152-1.251.243-1.883.285-.632.041-1.297-.005-1.895-.036-.599-.03-1.019-.042-1.693-.142-.674-.1-1.738-.32-2.336-.498-.597-.178-.993-.344-1.263-.487-.27-.143-.242-.117-.393-.273a2.235 2.235 0 01-.453-.688c-.15-.336-.262-.89-.358-1.34-.086-.407-.15-.825-.197-1.225l.313-2.967c.125-.178.236-.293.462-.411.126-.066.273-.114.437-.154zm23.524.367c.461 0 .95.013 1.419.047.469.034.92.094 1.394.155.475.06 1.017.122 1.454.213.257.054.512.112.74.176l.029.024c.251.182.459.288.626.23.14.072.236.14.333.246.142.156.208.28.274.534.066.254.05.584.036.973a9.95 9.95 0 01-.143 1.352c-.076.394-.166.644-.286 1.009-.12.364-.289.817-.44 1.174-.153.358-.24.728-.466.973-.226.245-.508.324-.798.462-.29.138-.568.249-.942.356-.373.108-.86.196-1.299.261-.44.066-.86.105-1.335.13-.475.026-.992.032-1.513.012a18.927 18.927 0 01-1.61-.13c-.526-.065-1.143-.12-1.548-.26-.406-.142-.611-.245-.883-.488-.27-.242-.508-.62-.679-.96-.171-.34-.216-.65-.346-1.056-.13-.405-.334-.979-.429-1.376-.094-.398-.14-.609-.149-.842a3.054 3.054 0 01.018-.546c.023-.204.042-.608.108-.83.065-.223.123-.339.238-.499.115-.16.261-.31.453-.438s.378-.192.69-.297h.002c.176.123.42.21.68.273.371.091.884.077 1.317 0 .433-.076.732-.247 1.241-.451.277-.11.59-.253.922-.403.294-.014.588-.024.892-.024zm9.382.62c.283-.008.453.05.671.293.08.09.121.23.135.426.014.196 0 .438 0 .691 0 .46-.107.986-.26 1.586-.146.573-.498 1.343-.689 1.961-.188.609-.43 1.608-.43 1.608l-.504 1.885c-.014.035-.225.553-.271.917-.047.373.07.632.053.96-.02.363-.078.868-.203 1.222-.127.359-.277.714-.545.963l.122-.738s.38-2.416.426-3.725c-.006-2.473-.284-3.698-.32-5.774 0 0 .084-.216.19-.498.124-.05.245-.104.32-.175.13-.121.233-.878.235-1.217v-.009l.126.079c.051-.053.098-.098.133-.127.325-.261.519-.32.81-.328zm-.338.705a.88.88 0 00-.71.429c-.12.188-.147.665-.147.665s.16-.487.229-.573c.069-.086.195-.209.292-.223.097-.014.122-.02.253-.023.13-.002.305-.044.444.056s.151.153.201.364c.05.21.026.519-.008.817-.033.298-.107.689-.186 1.04-.021.097-.311.971-.387 1.235-.055.191-.218.998-.218.998s.708-1.893.796-2.174c.088-.282.167-.526.207-.839.04-.313.113-.76.067-1.037-.048-.278-.064-.454-.253-.6-.142-.108-.375-.148-.58-.135zm-18.107.83c.174-.005.354.003.506.016.305.027.58.074.775.19.195.116.215.196.309.387.093.192.148.414.227.751.08.338.205.76.358 1.258.153.499.376 1.271.572 1.732.195.46.338.776.548 1.044.21.267.34.385.644.57.304.183.725.329 1.191.45.466.121 1.096.183 1.598.237.5.054.877.088 1.406.095.529.007 1.175-.031 1.763-.07.589-.04 1.17-.061 1.765-.167.594-.106 1.375-.3 1.787-.475.412-.173.487-.229.715-.426.229-.198.387-.451.57-.768.182-.318.338-.704.479-1.13.14-.427.294-1.04.405-1.424.112-.384.166-.605.262-.878.097-.273.178-.588.31-.76a.83.83 0 01.119-.125l.028 2.806-.003.005s.015 2.874-.104 4.18c-.118 1.307-.351 2.28-.578 3.54-.228 1.26-.357 3.007-.779 4.017-.421 1.01-.92 1.4-1.463 2.023-.544.623-1.225 1.373-1.783 1.703-.558.33-.882.526-1.357.426-.475-.101-.542-.516-1.117-.985-.576-.469-2.369-1.783-2.369-1.783s-1.162-.772-2.033-1.115c-.87-.343-2.299-.57-3.02-.421-.722.148-2.168 1.096-2.956 1.137-.788.041-1.14-.324-1.61-.533-.47-.21-.906-.558-1.587-.69-.682-.133-1.657.092-2.63.398-.974.307-1.977.959-2.747 1.421-.77.463-1.224 1.127-1.91 1.24-.686.113-1.422-.256-1.942-.639-.52-.382-.834-.98-1.065-1.49-.23-.51-.346-1.49-.346-1.49.054-.507-.643-10.084-.718-11.103l.005.017c.108.348.248.723.393 1.005.145.282.205.43.501.671.296.241.74.418 1.252.602.512.183 1.044.338 1.764.474.72.136 1.815.267 2.558.327.744.06 1.213.073 1.899.053.685-.02 1.588-.1 2.193-.237.605-.136.994-.22 1.396-.515.403-.295.604-.682.916-1.17a17.58 17.58 0 00.953-1.755c.242-.518.368-.958.525-1.329.157-.371.225-.698.405-.902.18-.203.29-.253.548-.332.13-.04.298-.058.472-.063zM2.503 32.21c.003.003.01.023.018.043l-.02-.022c0-.01-.001-.024.002-.021zm11.63 6.776s-.758.082-1.054.3c-.295.22-.68.501-.903.885-.223.384-.4.898-.47 1.28-.07.381-.067.523-.042.817.025.293.095.709.287.989.109.159.187.303.377.434.144.1.486.245.702.28.659.109 1.705-.075 1.705-.075s-1.085-.034-1.463-.127c-.38-.094-.516-.08-.776-.343s-.353-.601-.414-1.016c-.061-.414.022-1.016.132-1.411.11-.395.24-.662.451-.94.211-.28.377-.505.642-.7.264-.196.826-.373.826-.373zm6.73.403s.975.388 1.187.528c.212.14.402.373.65.723.246.35.331.815.35 1.377a2.4 2.4 0 01-.219 1.071c-.15.327-.442.592-.743.772-.302.18-.586.264-.905.32-.32.054-.985 0-.985 0s.71.295 1.091.265c.382-.03.798-.108 1.011-.213.214-.104.315-.134.64-.532.324-.397.545-.78.558-1.277.013-.498-.027-1.133-.186-1.57a1.852 1.852 0 00-.642-.891c-.252-.19-.645-.35-.955-.44-.31-.089-.852-.133-.852-.133zm-.088 3.564a.838.838 0 00-.125.002c-.289.032-.465.149-.718.293-.252.144-.54.417-.771.585-.231.168-.34.265-.613.426-.273.16-.704.444-1.037.506-.334.06-.606.008-.878-.08-.273-.089-.473-.229-.719-.426-.245-.198-.471-.584-.719-.772-.247-.188-.44-.305-.718-.372-.277-.068-.905 0-.905 0s.893.193 1.171.372.273.321.506.559c.233.237.604.695.905.851.3.156.64.22.94.235.301.015.496-.069.842-.181.347-.113.679-.377 1.012-.586.333-.208.695-.475.984-.665.289-.19.46-.377.745-.479.286-.102.932-.106.932-.106s-.512-.147-.834-.162zm-10.09 5.536c.262.005.556.05.892.054.673.009 2.315.266 2.421.266.107 0 1.603.463 2.289.585.686.123 1.676.213 1.81.187.132-.027 1.511-.223 2.314-.373.803-.15 1.733-.491 2.501-.532.769-.04 1.616.032 2.05.213.433.18.392-.003.585.479.193.482-.08 1.628-.293 2.341-.214.713-.572 1.289-.931 1.89-.36.6-.494 1.26-.985 1.73-.49.468-1.498.795-2.075.798-.578.003-.902-.022-1.33-.586-.43-.564-.054-2.195-.4-2.767-.346-.572-3.78-.8-4.417-.133-.638.667-.334 2.283-.772 2.634-.608.488-1.014.36-1.463.186-.45-.174-1.623-1.224-1.623-1.224-.376-.475-.475-1.059-.931-1.836-.457-.777-.452-1.444-.506-2.128-.054-.684-.264-1.286.16-1.597.211-.156.442-.191.704-.187zm1.131 1.012s.832.52 1.304.719c.472.197.935.302 1.517.452.582.149 1.144.306 1.633.404.488.098.8.192 1.4.154.601-.038.842-.104 1.273-.188.43-.084.918-.142 1.428-.245.51-.103 1.09-.247 1.583-.391.493-.145 1.251-.506 1.251-.506s-1.312.224-1.863.293c-.55.068-.73.05-1.22.133s-.934.156-1.46.242c-.527.086-.604.064-1.234.056s-.796-.032-1.26-.139c-.464-.107-.927-.15-1.436-.297a17.01 17.01 0 00-1.383-.341 91.047 91.047 0 01-1.533-.346z" color="#000" font-weight="400" font-family="sans-serif" overflow="visible" fill="#112154" fill-rule="evenodd"/></svg>