<svg xmlns="http://www.w3.org/2000/svg" width="150.441" height="245.744" viewBox="0 0 39.804 65.02"><path d="M21.406 2.326a1.153 1.153 0 00-.201.015 28.644 28.644 0 00-3.86.263c-1.466.197-2.994.477-4.483 1.043A17.861 17.861 0 008.758 5.88c-.858.62-1.696 1.356-2.394 2.254-.524.674-1.509 1.721-1.708 3.24-.129.219-.707 1.196-1.106 2.02-.442.911-.87 2.044-1.206 2.835-.377.89-.69 1.764-.835 2.455-.137.66-.286 1.432-.307 2.41-.018.844-.058 1.936.075 3.155.056.505.144.948.23 1.413l-.107.04c-.001 0-.198.168-.252.236-.107.136-.139.221-.165.285-.052.126-.06.182-.071.232-.021.1-.027.158-.035.224-.014.132-.024.272-.036.424-.022.306-.048.664-.075.849a1.153 1.153 0 00.04.508c.02.06.037.097.056.15-.049.351-.124.74-.086.947a1.153 1.153 0 000 .001c.037.2.077.463.134.736.007.03.025.27.052.608.044.553.198 1.112.198 1.112l.2.883c.001.55.012 1.32.07 2.344.109 1.903.492 6.101.628 7.999.135 1.874.045 2.64.254 3.778.214 1.164.698 2.286.704 2.301l.002.006c.004.01 1.015 2.57 2.023 4.141 1.037 1.616 3.41 4.16 3.41 4.16a1.153 1.153 0 00.034.037c.002.002.487.548 1.175 1.241.685.691 1.487 1.481 2.32 1.995 1.443.889 3.085 1.306 4.18 1.551.636.143 1.26.199 1.757.225.496.025.953.017.917.017.193 0 .33-.021.51-.046a15.3 15.3 0 00.723-.121c.556-.105 1.222-.254 1.844-.51.69-.285 1.397-.752 2.023-1.171.604-.404 1.061-.737 1.097-.763l.04-.027a1.153 1.153 0 00.111-.094c.19-.135 2.65-1.895 4.026-3.213 1.303-1.249 1.891-1.996 3.624-4.158a1.153 1.153 0 00.002 0l.015-.019a1.153 1.153 0 00.13-.206l.01-.019a1.153 1.153 0 00.016-.03c.934-2.02.947-2.144 1.284-3.15.373-1.119.661-2.299.9-3.381.258-1.168.556-3.14.565-3.192a1.153 1.153 0 00.013-.175v.092l.173-1.04c.312-.424.644-.883.747-1.174.218-.618.26-1.204.283-1.629.029-.523-.014-.863-.043-.87.017-.066.043-.17.07-.253.051-.154.1-.282.1-.282l-.007.015a1.153 1.153 0 00.044-.13l.5-1.87a1.153 1.153 0 00.007-.03l.004-.012c.004-.018.243-.983.395-1.477.132-.426.493-1.2.697-2 .16-.626.303-1.253.303-1.939 0-.177.023-.445-.002-.789-.024-.346-.11-.88-.526-1.343-.266-.297-.665-.312-1.029-.446.107-.537.35-1.869.607-3.42.137-.828.269-1.66.365-2.36.095-.692.177-1.169.15-1.69-.054-1-.187-1.933-.418-2.64-.83-2.673-.353-2.253-2.222-5.667a1.153 1.153 0 00-.048-.079c-.853-1.303-1.748-2.645-2.824-3.903-.794-.927-1.671-2.017-2.912-2.856-1.042-.704-2.16-1.069-3.147-1.38-1.336-.422-2.743-.742-4.192-.86a1.153 1.153 0 00-.011-.002l-.027-.002a1.153 1.153 0 00-.121 0 20.42 20.42 0 00-1.277-.056z" fill="#dbe5ee"/><path style="line-height:normal;font-variant-ligatures:normal;font-variant-position:normal;font-variant-caps:normal;font-variant-numeric:normal;font-variant-alternates:normal;font-feature-settings:normal;text-indent:0;text-align:start;text-decoration-line:none;text-decoration-style:solid;text-decoration-color:#000;text-transform:none;text-orientation:mixed;white-space:normal;shape-padding:0;isolation:auto;mix-blend-mode:normal;solid-color:#000;solid-opacity:1" d="M21.435 2.973c-1.326-.015-2.654.095-3.96.271-1.45.195-2.917.468-4.301.994A17.01 17.01 0 009.27 6.365c-.81.586-1.578 1.265-2.198 2.063-.654.842-1.587 1.774-1.611 2.964v.006l.008.057.016.025c-.076.13-.76 1.29-1.149 2.092-.41.846-.844 1.99-1.2 2.83-.364.856-.67 1.743-.782 2.28-.138.66-.27 1.347-.289 2.238-.018.871-.053 1.92.072 3.058.09.815.294 1.65.417 2.544-.29.007-.582.013-.79.025-.051.006-.077.961-.153 1.493.037.119.082.23.128.344-.026.043-.053.087-.074.135-.12.27-.097.538-.053.776.04.222.083.48.133.72.043.205.048.462.072.766.027.34.174.95.174.95l.225.997v-.006l.004.021c0 .538.014 1.392.076 2.48.106 1.876.498 6.156.639 8.12.14 1.96.06 2.726.242 3.719.183.997.65 2.117.65 2.117.001.002 1.065 2.629 1.96 4.022.898 1.4 3.347 4.072 3.347 4.072.002.002.522.587 1.197 1.267.677.682 1.5 1.458 2.145 1.856 1.256.774 2.824 1.194 3.892 1.433a9.836 9.836 0 001.592.201c.463.024.819.018.873.018.082 0 .18-.014.36-.039s.415-.062.677-.111c.525-.1 1.15-.247 1.647-.451.507-.21 1.236-.67 1.853-1.083a38.33 38.33 0 001.115-.775l.002-.002c.003-.002 2.785-2.013 4.09-3.264 1.287-1.233 1.82-1.913 3.584-4.115l.016-.02.01-.02c.946-2.046.91-2.037 1.26-3.083.358-1.073.643-2.238.882-3.32.242-1.095.56-3.173.561-3.176v-.002l.215-1.299.06-.054c.406-.33.587-.795.727-1.192.15-.427.204-.951.225-1.334.023-.418-.087-.678-.055-.93.031-.247.254-.843.254-.843l.004-.01.51-1.902v-.004s.243-1.002.423-1.584c.177-.573.531-1.342.694-1.979.155-.61.273-1.164.273-1.685 0-.237.017-.482 0-.719s-.07-.478-.238-.666a1.216 1.216 0 00-.979-.426c-.248.007-.49.158-.736.293.136-.393.287-.806.351-1.115.075-.359.374-1.99.651-3.66.139-.835.27-1.677.365-2.371.095-.694.157-1.218.143-1.498-.05-.936-.199-1.87-.367-2.385-.882-2.829-.287-2.114-2.176-5.565-.864-1.319-1.749-2.642-2.784-3.851-.818-.956-1.652-1.97-2.728-2.698-.887-.599-1.91-.943-2.898-1.255-1.298-.41-2.644-.715-4.008-.827l-.028-.002-.028.004a19.58 19.58 0 00-1.324-.058zM6.38 12.834s7.57.014 10.112.985c2.542.97 2.82 2.104 5.108 3.1 2.288.995 6.85 1.424 8.516 2.195 1.665.77 1.809 1.277 1.809 1.277s-.377-1.05-.638-1.436c-.261-.386-.852-.879-.852-.879s1.044.392 1.385.677c.341.284 1.01.738 1.01.738s-.588-1.21-.944-1.71c-.356-.501-1.158-1.222-1.158-1.222s.757.272 1.056.525c.36.306.558.443.853.808.295.364.832 1.275.832 1.275s-.646-1.981-1.038-2.626c-.391-.645-1.118-1.285-1.118-1.285s.819.49 1.425.933c.596.874 1.506 2.315 1.821 3.404.482 1.664.267 5.588.267 5.588l.027 2.829a9.283 9.283 0 01-.882-.091c-.187-.029-.344-.066-.523-.106-.055-.246-.147-.528-.217-.774-.113-.396-.23-.826-.414-1.205-.184-.378-.35-.836-.678-1.053-.245-.163-.502-.193-.79-.194-.097 0-.197.003-.3.005-.416.01-.832.15-1.355.302-.524.152-1.21.472-1.77.64-.56.167-1.058.225-1.58.376-.52.15-.997.362-1.543.526-.545.164-1.327.235-1.73.452-.404.216-.614.393-.715.64-.014.032-.021.06-.031.091-.404.1-.752.204-1.106.276-.513.105-.92.194-1.382.237a7.52 7.52 0 01-1.383.024c-.44-.042-.685-.124-1.24-.26-.553-.138-1.382-.412-2.073-.594-.535-.14-1.048-.278-1.59-.398-.243-.092-.54-.164-.867-.28a44.28 44.28 0 00-1.919-.601c-.571-.168-.965-.3-1.505-.414-.472-.1-1.036-.255-1.526-.268-.07-.002-.138 0-.205.004-.533.037-.956.217-1.393.414-.405.183-.8.437-1.126.693-.373.013-.749.027-1.12.037-.166.005-.351.008-.53.012l.333-3.156.878-5.295s.359-1.922.665-2.795c.307-.872 1.144-2.421 1.144-2.421zm24.405 13.452c.26.007.384.014.602.188.219.174.315.588.527.903l.13.196a59.037 59.037 0 00-.742-.105c-.564-.075-1.001-.129-1.645-.19-.429-.04-.95-.093-1.465-.129.611-.245 1.285-.51 1.69-.637.532-.168.643-.234.903-.226zM4.106 27.374l-.003.004c-.156.269-.16.404-.188.64-.028.235-.07.588.038.752.107.164.09.195.376.188.286-.007.757-.419 1.129-.64.431-.255.783-.655 1.279-.79.496-.134 1.105-.052 1.58.038.476.09.785.288 1.243.451.457.164 1.041.434 1.505.527.464.094.859.064 1.242.076.382.011.774.058 1.053 0 .28-.059.45-.115.602-.264a.798.798 0 00.264-.564c0-.025-.003-.048-.005-.072.064.019.13.036.191.057.464.157.926.35 1.228.557.302.207.466.35.608.594.142.244.186.49.214.818.028.328-.009.694-.095 1.127-.087.433-.277.987-.465 1.447-.188.46-.404.891-.655 1.306-.252.414-.515.894-.847 1.174-.331.28-.55.357-1.036.51-.487.152-1.252.243-1.883.284-.632.042-1.297-.005-1.895-.035-.599-.031-1.02-.043-1.693-.142-.674-.1-1.738-.32-2.336-.499-.597-.177-.993-.343-1.263-.486-.27-.143-.242-.117-.393-.273a2.235 2.235 0 01-.453-.688c-.15-.336-.262-.891-.358-1.34-.086-.407-.15-.826-.197-1.225l.313-2.967c.125-.178.236-.293.462-.411.126-.066.273-.114.437-.154zm23.524.367c.461 0 .95.013 1.419.047.469.034.92.094 1.394.155.475.06 1.017.121 1.454.213.257.054.512.112.74.176l.029.024c.251.182.459.288.626.229.14.073.236.14.333.247.142.156.208.28.274.534.066.254.05.584.036.973a9.95 9.95 0 01-.143 1.352c-.076.394-.166.644-.286 1.009-.12.364-.289.816-.441 1.174-.152.358-.239.728-.465.973-.226.245-.508.324-.798.462-.29.138-.569.249-.942.356-.373.108-.86.196-1.3.261-.439.066-.859.105-1.334.13-.475.025-.993.031-1.514.012a18.927 18.927 0 01-1.608-.13c-.527-.066-1.144-.12-1.55-.26-.405-.142-.61-.245-.882-.488-.271-.242-.508-.62-.68-.96-.17-.34-.215-.65-.345-1.056-.13-.405-.334-.979-.429-1.376-.095-.398-.14-.609-.149-.843a3.054 3.054 0 01.018-.545c.023-.204.042-.609.107-.83.066-.223.124-.339.239-.499.115-.16.261-.31.453-.439.192-.127.378-.191.69-.296h.002c.176.123.42.21.68.273.371.091.884.076 1.317 0 .433-.076.732-.248 1.241-.452.277-.11.59-.252.922-.403.294-.013.588-.023.892-.023zm9.382.62c.283-.008.453.05.671.293.08.09.121.229.135.426.014.196 0 .437 0 .691 0 .46-.107.986-.26 1.586-.146.573-.498 1.343-.69 1.961-.187.609-.429 1.608-.429 1.608l-.504 1.884c-.014.036-.225.554-.271.918-.047.373.07.632.053.96-.02.363-.078.867-.204 1.222-.126.359-.276.714-.544.963l.122-.738s.38-2.417.426-3.725c-.006-2.474-.284-3.698-.32-5.774 0 0 .084-.216.19-.499.124-.05.245-.103.32-.174.13-.122.233-.878.235-1.217v-.009l.126.079c.051-.054.098-.099.133-.127.325-.261.519-.32.81-.328zm-.338.705a.88.88 0 00-.71.429c-.12.188-.147.665-.147.665s.16-.487.229-.573c.068-.087.195-.209.292-.223.097-.014.122-.02.253-.023.13-.002.305-.044.444.056s.151.153.201.364c.05.21.026.518-.008.817-.033.298-.107.689-.186 1.04-.021.097-.311.971-.387 1.235-.055.191-.218.997-.218.997s.708-1.892.796-2.174c.088-.281.167-.525.207-.838.04-.313.113-.76.066-1.037-.047-.278-.063-.454-.252-.6-.142-.108-.375-.148-.58-.135zm-18.107.83c.174-.005.354.003.506.016.305.026.58.074.775.19.195.116.215.196.309.387.093.192.148.414.227.751.08.338.204.76.358 1.258.153.499.376 1.27.572 1.732.195.46.338.776.548 1.044.21.267.339.385.643.569.305.184.726.33 1.192.451.466.121 1.096.183 1.597.237.502.054.877.088 1.407.095.529.007 1.175-.031 1.763-.07.588-.04 1.17-.061 1.764-.167.595-.106 1.376-.301 1.788-.475.412-.173.486-.23.715-.427.229-.197.386-.45.57-.767.182-.318.338-.704.479-1.13.14-.427.294-1.04.405-1.424.112-.384.166-.605.262-.878.097-.273.178-.589.31-.76a.83.83 0 01.119-.125l.028 2.806-.003.005s.015 2.874-.104 4.18c-.118 1.307-.351 2.28-.578 3.54-.228 1.259-.357 3.007-.779 4.017-.421 1.01-.92 1.4-1.463 2.023-.544.623-1.225 1.373-1.783 1.703-.558.329-.882.526-1.357.425-.475-.1-.542-.515-1.117-.984-.576-.469-2.369-1.783-2.369-1.783s-1.163-.772-2.033-1.115c-.87-.343-2.299-.57-3.02-.422-.722.149-2.168 1.097-2.956 1.138-.788.041-1.14-.324-1.61-.534-.47-.21-.906-.557-1.587-.69-.682-.133-1.657.093-2.63.399-.974.306-1.977.959-2.747 1.421-.77.463-1.224 1.127-1.91 1.24-.686.113-1.422-.256-1.943-.639-.52-.383-.834-.98-1.064-1.49-.23-.51-.346-1.49-.346-1.49.054-.507-.643-10.084-.718-11.103l.005.017c.108.348.248.723.393 1.005.145.282.205.43.5.671.297.241.74.418 1.252.602.513.183 1.045.338 1.765.474.72.136 1.815.267 2.558.327.744.06 1.213.073 1.899.053.685-.02 1.588-.101 2.193-.237.605-.136.994-.22 1.396-.516.402-.295.604-.68.916-1.169a17.58 17.58 0 00.953-1.755c.242-.518.368-.958.525-1.329.156-.371.225-.698.405-.902.18-.203.29-.253.548-.332.13-.04.298-.058.472-.064zM2.521 32.21c.003.003.01.022.018.043l-.02-.022c0-.01-.001-.024.002-.021zm11.63 6.775s-.758.083-1.054.302c-.295.219-.68.5-.903.884-.223.384-.4.898-.47 1.28-.07.381-.067.523-.042.816.025.294.095.71.287.99.109.159.187.302.377.434.144.1.486.245.702.28.659.108 1.705-.075 1.705-.075s-1.085-.034-1.463-.127c-.38-.094-.516-.08-.776-.343s-.353-.601-.414-1.016c-.061-.415.022-1.016.132-1.411.11-.396.24-.662.451-.94.211-.28.377-.505.642-.7.264-.196.826-.374.826-.374zm6.73.404s.975.388 1.187.528c.212.14.402.373.65.723.246.35.33.815.35 1.377a2.4 2.4 0 01-.219 1.071c-.15.327-.442.592-.744.772-.301.18-.585.264-.904.319-.32.055-.985 0-.985 0s.71.296 1.091.266c.381-.03.798-.109 1.011-.213.214-.104.315-.135.64-.532.324-.398.545-.78.558-1.278.013-.497-.027-1.132-.186-1.57a1.852 1.852 0 00-.642-.89c-.252-.19-.645-.35-.955-.44-.31-.089-.852-.133-.852-.133zm-.088 3.564a.838.838 0 00-.125.002c-.29.032-.465.149-.718.293-.253.144-.54.417-.772.585-.23.168-.339.265-.612.425-.273.16-.704.445-1.038.506-.333.062-.605.008-.878-.08-.272-.088-.473-.228-.718-.426-.245-.197-.471-.583-.719-.771-.247-.188-.44-.305-.718-.373-.277-.067-.905 0-.905 0s.893.194 1.171.373.273.321.506.559c.232.237.604.695.904.851.3.156.641.22.941.235.3.015.496-.069.842-.182.347-.112.679-.377 1.012-.585.332-.209.695-.475.984-.665.289-.19.459-.377.745-.48.286-.101.931-.106.931-.106s-.511-.146-.833-.161zm-10.09 5.536c.262.005.555.05.892.053.673.01 2.315.267 2.421.267.106 0 1.603.463 2.289.585.686.122 1.676.213 1.809.187.133-.027 1.512-.223 2.315-.373.803-.15 1.733-.491 2.501-.532.769-.041 1.616.032 2.05.213.432.18.392-.003.585.479.192.482-.08 1.628-.293 2.341-.214.713-.572 1.289-.932 1.89-.359.6-.493 1.26-.984 1.73-.491.468-1.498.795-2.075.798-.578.003-.902-.022-1.331-.586-.428-.564-.053-2.195-.399-2.767-.346-.572-3.78-.8-4.417-.134-.638.668-.334 2.284-.772 2.635-.608.488-1.014.36-1.463.186-.45-.174-1.623-1.224-1.623-1.224-.377-.475-.475-1.059-.932-1.836-.456-.777-.452-1.444-.506-2.128-.054-.685-.264-1.286.16-1.597.212-.156.443-.191.705-.187zm1.131 1.012s.832.52 1.304.718c.472.198.935.303 1.517.453.582.149 1.144.306 1.633.404.488.097.799.192 1.4.154.601-.038.842-.105 1.272-.188.43-.084.92-.143 1.43-.245.51-.103 1.09-.247 1.582-.392.493-.144 1.251-.505 1.251-.505s-1.312.224-1.863.293c-.55.068-.73.049-1.22.132-.49.084-.935.157-1.46.243-.527.086-.604.064-1.234.056s-.796-.032-1.26-.139c-.464-.107-.928-.15-1.436-.298a17.01 17.01 0 00-1.384-.34 91.047 91.047 0 01-1.532-.346z" color="#000" font-weight="400" font-family="sans-serif" overflow="visible" fill="#112154" fill-rule="evenodd"/></svg>